HIERARCHY
ROOT Hips
{
	OFFSET	0.00	0.00	0.00
	CHANNELS 6 Xposition Yposition Zposition Zrotation Xrotation Yrotation
	JOINT LeftUpLeg
	{
		OFFSET	 0.126116	-0.014019	-0.065224
		CHANNELS 3 Zrotation Xrotation Yrotation
		JOINT LeftLeg
		{
			OFFSET	 0.000000	 0.000000	 0.569914
			CHANNELS 3 Zrotation Xrotation Yrotation
			JOINT LeftFoot
			{
				OFFSET	 0.000000	 0.000000	 0.544423
				CHANNELS 3 Zrotation Xrotation Yrotation
				JOINT LeftToeBase
				{
					OFFSET	 0.000000	 0.000000	 0.207117
					CHANNELS 3 Zrotation Xrotation Yrotation
					End Site
					{
						OFFSET	 0.000000	 0.000000	 0.207117
					}
				}
			}
		}
	}
	JOINT RightUpLeg
	{
		OFFSET	-0.124023	-0.008373	-0.065224
		CHANNELS 3 Zrotation Xrotation Yrotation
		JOINT RightLeg
		{
			OFFSET	 0.000000	 0.000000	 0.570047
			CHANNELS 3 Zrotation Xrotation Yrotation
			JOINT RightFoot
			{
				OFFSET	 0.000000	 0.000000	 0.544354
				CHANNELS 3 Zrotation Xrotation Yrotation
				JOINT RightToeBase
				{
					OFFSET	 0.000000	 0.000000	 0.207540
					CHANNELS 3 Zrotation Xrotation Yrotation
					End Site
					{
						OFFSET	 0.000000	 0.000000	 0.207540
					}
				}
			}
		}
	}
	JOINT Spine
	{
		OFFSET	 0.000184	-0.007763	 0.117403
		CHANNELS 3 Zrotation Xrotation Yrotation
		JOINT Spine1
		{
			OFFSET	 0.000000	 0.000000	 0.137269
			CHANNELS 3 Zrotation Xrotation Yrotation
			JOINT Spine2
			{
				OFFSET	 0.000000	 0.000000	 0.156879
				CHANNELS 3 Zrotation Xrotation Yrotation
				JOINT LeftShoulder
				{
					OFFSET	 0.080501	-0.002496	 0.160144
					CHANNELS 3 Zrotation Xrotation Yrotation
					JOINT LeftArm
					{
						OFFSET	 0.000000	 0.000000	 0.164363
						CHANNELS 3 Zrotation Xrotation Yrotation
						JOINT LeftForeArm
						{
							OFFSET	 0.000000	 0.000000	 0.364576
							CHANNELS 3 Zrotation Xrotation Yrotation
							JOINT LeftHand
							{
								OFFSET	 0.000000	 0.000000	 0.360812
								CHANNELS 3 Zrotation Xrotation Yrotation
								JOINT LeftHandIndex1
								{
									OFFSET	 0.000000	 0.000000	 0.086006
									CHANNELS 3 Zrotation Xrotation Yrotation
									JOINT LeftHandIndex2
									{
										OFFSET	 0.000000	 0.000000	 0.047236
										CHANNELS 3 Zrotation Xrotation Yrotation
										JOINT LeftHandIndex3
										{
											OFFSET	-0.004284	-0.000551	 0.038166
											CHANNELS 3 Zrotation Xrotation Yrotation
											End Site
											{
												OFFSET	-0.004284	-0.000551	 0.038166
											}
										}
									}
								}
							}
						}
					}
				}
				JOINT Neck
				{
					OFFSET	 0.000000	 0.000000	 0.176489
					CHANNELS 3 Zrotation Xrotation Yrotation
					JOINT Head
					{
						OFFSET	 0.000000	-0.001747	 0.077940
						CHANNELS 3 Zrotation Xrotation Yrotation
						End Site
						{
							OFFSET	 0.000000	-0.001747	 0.077940
						}
					}
				}
				JOINT RightShoulder
				{
					OFFSET	-0.080363	 0.000306	 0.159706
					CHANNELS 3 Zrotation Xrotation Yrotation
					JOINT RightArm
					{
						OFFSET	 0.000000	 0.000000	 0.164196
						CHANNELS 3 Zrotation Xrotation Yrotation
						JOINT RightForeArm
						{
							OFFSET	 0.000000	 0.000000	 0.365611
							CHANNELS 3 Zrotation Xrotation Yrotation
							JOINT RightHand
							{
								OFFSET	 0.000000	 0.000000	 0.360648
								CHANNELS 3 Zrotation Xrotation Yrotation
								JOINT RightHandIndex1
								{
									OFFSET	 0.000000	 0.000000	 0.069977
									CHANNELS 3 Zrotation Xrotation Yrotation
									JOINT RightHandIndex2
									{
										OFFSET	 0.000000	 0.000000	 0.052305
										CHANNELS 3 Zrotation Xrotation Yrotation
										JOINT RightHandIndex3
										{
											OFFSET	 0.009002	-0.000782	 0.042196
											CHANNELS 3 Zrotation Xrotation Yrotation
											End Site
											{
												OFFSET	 0.009002	-0.000782	 0.042196
											}
										}
									}
								}
							}
						}
					}
				}
			}
		}
	}
}
MOTION
Frames:    6
Frame Time: 0.03333334
 6.497007	 3.280687	 0.241831	 165.183500	-2.188711	-1.197616	 7.306201	 20.620200	-176.851900	-3.558700	-11.631210	 1.482907	 3.662554	 84.390070	-0.278530	-2.299741	 39.852270	-0.271674	 5.098706	-35.761860	-177.764000	 0.852313	-42.463210	 4.880816	 119.406000	 89.801190	-113.706900	 2.370078	 31.238530	 0.062913	-7.546119	 3.683026	 2.399694	-12.021590	-0.599636	 0.260528	-14.223140	-2.552031	-1.764024	-91.776180	 78.527400	-180.000000	 35.712020	 60.531730	-53.855280	-16.445670	 2.194584	-43.894840	 0.680300	-12.648970	-5.963145	-3.812334	 37.924440	-2.927599	-2.450526	 36.184240	 0.754587	-1.378229	 35.397820	-2.634230	 1.222219	 2.171218	-4.958781	-2.258603	-9.683328	 2.841743	 89.782100	 78.203870	-180.000000	-37.752460	 72.166720	 35.187940	 9.127276	-1.643600	 30.291120	-9.664751	-13.522010	 10.329880	 6.437017	 35.671460	-0.771858	 2.830251	 35.756010	-7.813440	-2.350882	 35.473990	 5.254307
 6.504818	 3.306748	 0.240805	 165.429000	-2.011438	-1.277706	 7.386710	 21.741500	-177.006100	-3.479011	-11.626920	 1.516226	 4.010759	 84.430810	-0.473723	-2.282950	 41.274960	-0.310347	 5.265679	-36.058640	-177.539200	 0.050201	-39.909540	 4.122173	 145.692400	 89.592660	-140.320800	 2.365172	 32.050450	 0.081344	-7.598288	 3.558634	 2.285420	-12.053270	-0.690718	 0.202611	-14.228550	-2.652071	-1.799893	-91.776180	 78.527400	-180.000000	 36.125030	 60.521680	-54.475540	-16.516250	 2.342059	-44.442780	 0.585371	-12.682340	-5.971898	-3.812334	 37.924440	-2.927599	-2.450526	 36.184240	 0.754587	-1.378229	 35.397820	-2.634230	 1.226609	 2.164393	-4.979000	-2.238065	-9.774236	 3.105752	 89.782120	 78.203870	 180.000000	-37.091780	 72.546900	 34.425730	 9.375443	-1.603265	 29.845290	-9.862932	-13.564970	 10.334100	 6.437017	 35.671460	-0.771858	 2.830251	 35.756010	-7.813440	-2.350882	 35.473990	 5.254307
 6.512485	 3.331985	 0.239955	 165.673600	-1.899624	-1.313531	 7.496553	 22.841660	-177.275100	-3.335371	-11.621660	 1.556513	 4.378042	 84.297100	-0.643297	-2.261926	 42.882740	-0.355806	 5.183547	-36.071430	-177.448800	-0.217146	-38.414810	 3.735607	 152.428100	 89.406850	-147.226700	 2.361356	 32.643370	 0.094968	-7.663301	 3.494102	 2.153063	-12.085000	-0.760944	 0.128999	-14.217180	-2.735415	-1.837445	-91.776180	 78.527400	 180.000000	 36.567240	 60.659760	-54.909030	-16.589200	 2.433467	-44.708320	 0.557087	-12.713810	-5.979495	-3.812334	 37.924440	-2.927599	-2.450526	 36.184240	 0.754587	-1.378229	 35.397820	-2.634230	 1.231431	 2.116453	-5.007191	-2.214108	-9.811706	 3.368073	 89.782090	 78.203830	-180.000000	-36.480480	 72.864910	 33.740500	 9.557719	-1.572191	 29.402120	-10.073420	-13.603830	 10.337190	 6.437017	 35.671460	-0.771858	 2.830251	 35.756010	-7.813440	-2.350882	 35.473990	 5.254307
 6.520733	 3.358509	 0.239022	 165.929300	-1.936768	-1.323241	 7.648881	 23.997690	-177.676800	-3.085816	-11.613950	 1.613470	 4.794213	 83.892820	-0.764066	-2.238463	 44.496080	-0.403489	 5.024501	-35.944730	-177.412300	-0.092465	-37.803790	 3.665744	 152.602500	 89.361730	-147.368600	 2.360642	 32.750580	 0.097448	-7.729012	 3.452868	 2.029876	-12.110990	-0.809270	 0.036427	-14.184760	-2.784406	-1.873110	-91.776180	 78.527420	-180.000000	 37.111780	 60.912600	-55.314050	-16.690520	 2.502862	-44.743050	 0.550394	-12.745670	-5.986708	-3.812334	 37.924440	-2.927599	-2.450526	 36.184240	 0.754587	-1.378229	 35.397820	-2.634230	 1.250642	 2.076919	-5.025404	-2.180336	-9.833684	 3.597715	 89.782070	 78.203930	-180.000000	-35.925640	 73.144900	 33.127760	 9.696556	-1.540113	 28.942190	-10.292040	-13.642280	 10.339630	 6.437017	 35.671460	-0.771858	 2.830251	 35.756010	-7.813440	-2.350882	 35.473990	 5.254307
 6.530396	 3.387998	 0.237973	 166.205300	-1.991069	-1.324037	 7.852072	 25.277180	-178.231800	-2.700644	-11.602790	 1.692546	 5.252396	 83.103070	-0.794758	-2.216093	 45.890300	-0.446560	 4.897824	-35.703540	-177.507600	 0.326985	-37.886150	 3.880022	 145.515000	 89.515430	-140.024800	 2.364481	 32.159520	 0.083846	-7.792165	 3.411099	 1.943899	-12.128390	-0.836175	-0.074104	-14.126540	-2.780313	-1.903146	-91.776180	 78.527420	-180.000000	 37.841870	 61.265100	-55.733080	-16.805970	 2.574600	-44.574230	 0.532626	-12.780030	-5.994140	-3.812334	 37.924440	-2.927599	-2.450526	 36.184240	 0.754587	-1.378229	 35.397820	-2.634230	 1.292784	 2.097646	-5.048702	-2.129512	-9.873644	 3.821200	 89.782120	 78.203870	 180.000000	-35.470950	 73.391200	 32.627210	 9.783745	-1.503302	 28.451710	-10.525410	-13.682830	 10.341530	 6.437017	 35.671460	-0.771858	 2.830251	 35.756010	-7.813440	-2.350882	 35.473990	 5.254307
 6.539982	 3.416681	 0.237038	 166.465400	-2.055311	-1.316028	 8.072200	 26.490070	-178.844800	-2.284114	-11.591020	 1.772172	 5.616780	 82.000730	-0.706140	-2.193861	 47.160850	-0.487479	 4.851966	-35.195740	-177.577300	 0.808171	-38.485380	 4.247042	 108.253700	 89.745120	-102.434200	 2.370895	 31.097490	 0.059738	-7.852361	 3.357178	 1.904357	-12.141830	-0.841361	-0.189169	-14.048220	-2.720583	-1.928621	-91.776180	 78.527400	 180.000000	 38.599270	 61.679040	-55.998190	-16.928560	 2.641997	-44.222100	 0.499495	-12.804720	-6.001892	-3.812334	 37.924440	-2.927599	-2.450526	 36.184240	 0.754587	-1.378229	 35.397820	-2.634230	 1.352831	 2.205995	-5.089985	-2.072001	-9.948855	 4.026980	 89.782100	 78.203850	-180.000000	-35.108220	 73.586170	 32.239230	 9.842243	-1.465891	 28.015040	-10.733510	-13.719540	 10.342990	 6.437017	 35.671460	-0.771858	 2.830251	 35.756010	-7.813440	-2.350882	 35.473990	 5.254307
